<?xml version="1.0" standalone="no"?>
<!DOCTYPE svg PUBLIC "-//W3C//DTD SVG 20010904//EN"
 "http://www.w3.org/TR/2001/REC-SVG-20010904/DTD/svg10.dtd">
<svg version="1.0" xmlns="http://www.w3.org/2000/svg"
 width="72.000000pt" height="72.000000pt" viewBox="0 0 72.000000 72.000000"
 preserveAspectRatio="xMidYMid meet">

<g transform="translate(0.000000,72.000000) scale(0.100000,-0.100000)"
fill="#000000" stroke="none">
<path d="M287 680 c-179 -45 -292 -234 -243 -405 30 -102 93 -176 185 -218 65
-29 197 -29 262 0 168 76 242 271 166 436 -34 75 -79 122 -150 157 -69 33
-157 45 -220 30z m273 -125 l0 -25 -200 0 -200 0 0 25 0 25 200 0 200 0 0 -25z
m0 -100 l0 -25 -200 0 -200 0 0 25 0 25 200 0 200 0 0 -25z m0 -95 l0 -30
-200 0 -200 0 0 30 0 30 200 0 200 0 0 -30z m-220 -95 c0 -25 -1 -25 -90 -25
-89 0 -90 0 -90 25 0 25 1 25 90 25 89 0 90 0 90 -25z m163 -67 c-60 -61 -59
-61 -105 -15 -22 21 -23 31 -3 47 13 10 19 10 33 -3 17 -16 21 -14 57 23 37
38 40 39 57 23 18 -16 16 -19 -39 -75z m-163 -33 c0 -25 -1 -25 -90 -25 -89 0
-90 0 -90 25 0 25 1 25 90 25 89 0 90 0 90 -25z"/>
</g>
</svg>
